# xmcd CD database file
#
# Track frame offsets:
#	150
#	16296
#	32533
#	49918
#	74765
#	89841
#	104324
#	116338
#	138212
#	153962
#	172710
#	189804
#
# Disc length: 2842 seconds
#
# Revision: 1
# Processed by: cddbd v1.5.2PL0 Copyright (c) Steve Scherf et al.
# Submitted via: CDex 1.51
#
DISCID=930b180c
DTITLE=Michael Wollny´s [em] - Wasted and Wanted
DYEAR=2011
DGENRE=Jazz
TTITLE0=Wasted and Wanted
TTITLE1=Mahler Symph. V, Mov. 1 - Trauermarsch
TTITLE2=Metall
TTITLE3=Blank
TTITLE4=Kulintang
TTITLE5=Cembalo Manifeszt
TTITLE6=Wasserklavier
TTITLE7=Ihr Bild
TTITLE8=Nr. 10
TTITLE9=Das Model
TTITLE10=Dario
TTITLE11=Whiteout
EXTD=YEAR: 2011
EXTT0=
EXTT1=
EXTT2=
EXTT3=
EXTT4=
EXTT5=
EXTT6=
EXTT7=
EXTT8=
EXTT9=
EXTT10=
EXTT11=
PLAYORDER=
